<?xml version="1.0" encoding="UTF-8" standalone="no"?>
<!DOCTYPE svg PUBLIC "-//W3C//DTD SVG 1.1//EN" "http://www.w3.org/Graphics/SVG/1.1/DTD/svg11.dtd">
<svg version="1.1" xmlns="http://www.w3.org/2000/svg" xmlns:xlink="http://www.w3.org/1999/xlink" preserveAspectRatio="xMidYMid meet" viewBox="220.03558714939095 182.8814129057142 192.4679561360005 294.00264506530004" width="188.47" height="290"><defs><path d="M315.27 473.88L221.04 335.05L315.27 335.05L315.27 473.88Z" id="a6jCU21RIw"></path><path d="M315.27 473.88L409.5 335.05L315.27 335.05L315.27 473.88Z" id="j1l1U3cx25"></path><path d="M362.39 365.06L409.5 335.05L315.27 335.05L221.04 335.05L268.15 365.06L315.27 395.06L362.39 365.06Z" id="fiLinTTkr"></path><path d="M315.27 374.77L221.04 322.72L315.27 322.72L315.27 374.77Z" id="dWa2Wew6x"></path><path d="M315.27 183.88L221.04 322.72L315.27 322.72L315.27 183.88Z" id="bRF40b3Ja"></path><path d="M315.27 374.77L409.5 322.72L315.27 322.72L315.27 374.77Z" id="b4pKwdOGo"></path><path d="M315.27 183.88L409.5 322.72L315.27 322.72L315.27 183.88Z" id="d32YCoYdBn"></path><path d="M315.27 274.19L409.5 322.72L315.27 322.72L315.27 274.19Z" id="e30aziz1A"></path><path d="M315.27 274.19L221.04 322.72L315.27 322.72L315.27 274.19Z" id="a6ECvNwi5A"></path></defs><g><g><use xlink:href="#a6jCU21RIw" opacity="1" fill="#ffffff" fill-opacity="1"></use></g><g><use xlink:href="#j1l1U3cx25" opacity="1" fill="#e1e0e0" fill-opacity="1"></use></g><g><use xlink:href="#fiLinTTkr" opacity="1" fill="#969696" fill-opacity="1"></use></g><g><use xlink:href="#dWa2Wew6x" opacity="1" fill="#f3f3f3" fill-opacity="1"></use></g><g><use xlink:href="#bRF40b3Ja" opacity="1" fill="#ffffff" fill-opacity="1"></use></g><g><use xlink:href="#b4pKwdOGo" opacity="1" fill="#e1e0e0" fill-opacity="1"></use></g><g><use xlink:href="#d32YCoYdBn" opacity="1" fill="#efefef" fill-opacity="1"></use></g><g><use xlink:href="#e30aziz1A" opacity="1" fill="#e1e0e0" fill-opacity="1"></use></g><g><use xlink:href="#a6ECvNwi5A" opacity="1" fill="#f3f3f3" fill-opacity="1"></use></g></g></svg>